<?xml version="1.0" encoding="utf-8"?>
<!-- Generator: Adobe Illustrator 25.1.0, SVG Export Plug-In . SVG Version: 6.00 Build 0)  -->
<svg version="1.1" id="Layer_1" xmlns="http://www.w3.org/2000/svg" xmlns:xlink="http://www.w3.org/1999/xlink" x="0px" y="0px"
	 viewBox="0 0 512 512" style="enable-background:new 0 0 512 512;" xml:space="preserve">
<style type="text/css">
	.st0{fill:#00C266;}
</style>
<g>
	<path id="svg_1" class="st0" d="M457.5,187.6c-12.5-25.6-33.8-39.9-54.6-53.7c-15.4-10.3-29.9-20.1-40.3-34.1l-1.9-2.6
		c-6.1-8.1-13-17.4-14-25.2c-1-7.9-7.2-13.3-16-13.1c-8.1,0.6-14.2,7.2-14.2,15.2v270c-12.7-7.7-28.3-12.4-45.5-12.4
		c-41.8,0-75.8,27.2-75.8,60.6s34,60.6,75.8,60.6s75.8-27.2,75.8-60.6V215.8c22.7,8.7,60,30.9,70.3,82.6c-1.9,2.8-3.7,5.9-5.9,8.2
		c-5.6,6.3-4.9,15.8,1.3,21.4c6.3,5.6,15.8,4.9,21.4-1.3c18.9-21.6,32-55.7,34.1-89C469,221.1,465.4,203.8,457.5,187.6L457.5,187.6z
		"/>
	<path id="svg_2" class="st0" d="M58.9,89.3h181.8c8.3,0,15.2-6.8,15.2-15.2S249.1,59,240.8,59H58.9c-8.3,0-15.2,6.8-15.2,15.2
		S50.6,89.3,58.9,89.3z"/>
	<path id="svg_3" class="st0" d="M58.9,180.2h181.8c8.3,0,15.2-6.8,15.2-15.2c0-8.3-6.8-15.2-15.2-15.2H58.9
		c-8.3,0-15.2,6.8-15.2,15.2C43.8,173.4,50.6,180.2,58.9,180.2z"/>
	<path id="svg_4" class="st0" d="M149.9,240.8H58.9c-8.3,0-15.2,6.8-15.2,15.2c0,8.3,6.8,15.2,15.2,15.2h90.9
		c8.3,0,15.2-6.8,15.2-15.2C165,247.7,158.2,240.8,149.9,240.8z"/>
	<path id="svg_5" class="st0" d="M149.9,331.8H58.9c-8.3,0-15.2,6.8-15.2,15.2s6.8,15.2,15.2,15.2h90.9c8.3,0,15.2-6.8,15.2-15.2
		S158.2,331.8,149.9,331.8z"/>
</g>
</svg>
